<svg xmlns="http://www.w3.org/2000/svg" viewBox="-24 16 176 134" fill="none" role="img" aria-label="iris">
  <defs>
    
    <mask id="hideDot">
      <rect x="-24" y="16" width="176" height="134" fill="white"></rect>
      <circle cx="14.54" cy="72" r="12" fill="black"></circle>
    </mask>
  </defs>
  <text x="0" y="142.5" fill="#1c1917" mask="url(#hideDot)" font-family="Newsreader, Georgia, &#39;Times New Roman&#39;, serif" font-weight="500" font-size="100" letter-spacing="-0.5" style="font-family:Newsreader,Georgia,&#39;Times New Roman&#39;,serif;font-weight:500;font-size:100px;letter-spacing:-0.5px;">iris</text>
  <g transform="translate(-17.46,23.90) scale(0.6400)">
    <circle cx="50" cy="50" r="47" stroke="#b45309" stroke-width="1.5"></circle>
    <circle cx="50" cy="50" r="43" stroke="#b45309" stroke-width="1.05" opacity="0.75"></circle>
    <line x1="77.00" y1="50.00" x2="77.00" y2="83.47" stroke="#b45309" stroke-width="1.4" stroke-linecap="round"></line>
    <line x1="63.50" y1="73.38" x2="34.52" y2="90.12" stroke="#b45309" stroke-width="1.4" stroke-linecap="round"></line>
    <line x1="36.50" y1="73.38" x2="7.52" y2="56.65" stroke="#b45309" stroke-width="1.4" stroke-linecap="round"></line>
    <line x1="23.00" y1="50.00" x2="23.00" y2="16.53" stroke="#b45309" stroke-width="1.4" stroke-linecap="round"></line>
    <line x1="36.50" y1="26.62" x2="65.48" y2="9.88" stroke="#b45309" stroke-width="1.4" stroke-linecap="round"></line>
    <line x1="63.50" y1="26.62" x2="92.48" y2="43.35" stroke="#b45309" stroke-width="1.4" stroke-linecap="round"></line>
    <circle cx="50" cy="50" r="27" stroke="#b45309" stroke-width="1.4"></circle>
    <line x1="63.00" y1="50.00" x2="74.50" y2="50.00" stroke="#c2853a" stroke-width="0.55" stroke-linecap="round" opacity="0.8"></line>
    <line x1="62.89" y1="51.70" x2="74.29" y2="53.20" stroke="#c2853a" stroke-width="0.55" stroke-linecap="round" opacity="0.8"></line>
    <line x1="62.56" y1="53.36" x2="73.67" y2="56.34" stroke="#c2853a" stroke-width="0.55" stroke-linecap="round" opacity="0.8"></line>
    <line x1="62.01" y1="54.97" x2="72.64" y2="59.38" stroke="#c2853a" stroke-width="0.55" stroke-linecap="round" opacity="0.8"></line>
    <line x1="61.26" y1="56.50" x2="71.22" y2="62.25" stroke="#c2853a" stroke-width="0.55" stroke-linecap="round" opacity="0.8"></line>
    <line x1="60.31" y1="57.91" x2="69.44" y2="64.91" stroke="#c2853a" stroke-width="0.55" stroke-linecap="round" opacity="0.8"></line>
    <line x1="59.19" y1="59.19" x2="67.32" y2="67.32" stroke="#c2853a" stroke-width="0.55" stroke-linecap="round" opacity="0.8"></line>
    <line x1="57.91" y1="60.31" x2="64.91" y2="69.44" stroke="#c2853a" stroke-width="0.55" stroke-linecap="round" opacity="0.8"></line>
    <line x1="56.50" y1="61.26" x2="62.25" y2="71.22" stroke="#c2853a" stroke-width="0.55" stroke-linecap="round" opacity="0.8"></line>
    <line x1="54.97" y1="62.01" x2="59.38" y2="72.64" stroke="#c2853a" stroke-width="0.55" stroke-linecap="round" opacity="0.8"></line>
    <line x1="53.36" y1="62.56" x2="56.34" y2="73.67" stroke="#c2853a" stroke-width="0.55" stroke-linecap="round" opacity="0.8"></line>
    <line x1="51.70" y1="62.89" x2="53.20" y2="74.29" stroke="#c2853a" stroke-width="0.55" stroke-linecap="round" opacity="0.8"></line>
    <line x1="50.00" y1="63.00" x2="50.00" y2="74.50" stroke="#c2853a" stroke-width="0.55" stroke-linecap="round" opacity="0.8"></line>
    <line x1="48.30" y1="62.89" x2="46.80" y2="74.29" stroke="#c2853a" stroke-width="0.55" stroke-linecap="round" opacity="0.8"></line>
    <line x1="46.64" y1="62.56" x2="43.66" y2="73.67" stroke="#c2853a" stroke-width="0.55" stroke-linecap="round" opacity="0.8"></line>
    <line x1="45.03" y1="62.01" x2="40.62" y2="72.64" stroke="#c2853a" stroke-width="0.55" stroke-linecap="round" opacity="0.8"></line>
    <line x1="43.50" y1="61.26" x2="37.75" y2="71.22" stroke="#c2853a" stroke-width="0.55" stroke-linecap="round" opacity="0.8"></line>
    <line x1="42.09" y1="60.31" x2="35.09" y2="69.44" stroke="#c2853a" stroke-width="0.55" stroke-linecap="round" opacity="0.8"></line>
    <line x1="40.81" y1="59.19" x2="32.68" y2="67.32" stroke="#c2853a" stroke-width="0.55" stroke-linecap="round" opacity="0.8"></line>
    <line x1="39.69" y1="57.91" x2="30.56" y2="64.91" stroke="#c2853a" stroke-width="0.55" stroke-linecap="round" opacity="0.8"></line>
    <line x1="38.74" y1="56.50" x2="28.78" y2="62.25" stroke="#c2853a" stroke-width="0.55" stroke-linecap="round" opacity="0.8"></line>
    <line x1="37.99" y1="54.97" x2="27.36" y2="59.38" stroke="#c2853a" stroke-width="0.55" stroke-linecap="round" opacity="0.8"></line>
    <line x1="37.44" y1="53.36" x2="26.33" y2="56.34" stroke="#c2853a" stroke-width="0.55" stroke-linecap="round" opacity="0.8"></line>
    <line x1="37.11" y1="51.70" x2="25.71" y2="53.20" stroke="#c2853a" stroke-width="0.55" stroke-linecap="round" opacity="0.8"></line>
    <line x1="37.00" y1="50.00" x2="25.50" y2="50.00" stroke="#c2853a" stroke-width="0.55" stroke-linecap="round" opacity="0.8"></line>
    <line x1="37.11" y1="48.30" x2="25.71" y2="46.80" stroke="#c2853a" stroke-width="0.55" stroke-linecap="round" opacity="0.8"></line>
    <line x1="37.44" y1="46.64" x2="26.33" y2="43.66" stroke="#c2853a" stroke-width="0.55" stroke-linecap="round" opacity="0.8"></line>
    <line x1="37.99" y1="45.03" x2="27.36" y2="40.62" stroke="#c2853a" stroke-width="0.55" stroke-linecap="round" opacity="0.8"></line>
    <line x1="38.74" y1="43.50" x2="28.78" y2="37.75" stroke="#c2853a" stroke-width="0.55" stroke-linecap="round" opacity="0.8"></line>
    <line x1="39.69" y1="42.09" x2="30.56" y2="35.09" stroke="#c2853a" stroke-width="0.55" stroke-linecap="round" opacity="0.8"></line>
    <line x1="40.81" y1="40.81" x2="32.68" y2="32.68" stroke="#c2853a" stroke-width="0.55" stroke-linecap="round" opacity="0.8"></line>
    <line x1="42.09" y1="39.69" x2="35.09" y2="30.56" stroke="#c2853a" stroke-width="0.55" stroke-linecap="round" opacity="0.8"></line>
    <line x1="43.50" y1="38.74" x2="37.75" y2="28.78" stroke="#c2853a" stroke-width="0.55" stroke-linecap="round" opacity="0.8"></line>
    <line x1="45.03" y1="37.99" x2="40.62" y2="27.36" stroke="#c2853a" stroke-width="0.55" stroke-linecap="round" opacity="0.8"></line>
    <line x1="46.64" y1="37.44" x2="43.66" y2="26.33" stroke="#c2853a" stroke-width="0.55" stroke-linecap="round" opacity="0.8"></line>
    <line x1="48.30" y1="37.11" x2="46.80" y2="25.71" stroke="#c2853a" stroke-width="0.55" stroke-linecap="round" opacity="0.8"></line>
    <line x1="50.00" y1="37.00" x2="50.00" y2="25.50" stroke="#c2853a" stroke-width="0.55" stroke-linecap="round" opacity="0.8"></line>
    <line x1="51.70" y1="37.11" x2="53.20" y2="25.71" stroke="#c2853a" stroke-width="0.55" stroke-linecap="round" opacity="0.8"></line>
    <line x1="53.36" y1="37.44" x2="56.34" y2="26.33" stroke="#c2853a" stroke-width="0.55" stroke-linecap="round" opacity="0.8"></line>
    <line x1="54.97" y1="37.99" x2="59.38" y2="27.36" stroke="#c2853a" stroke-width="0.55" stroke-linecap="round" opacity="0.8"></line>
    <line x1="56.50" y1="38.74" x2="62.25" y2="28.78" stroke="#c2853a" stroke-width="0.55" stroke-linecap="round" opacity="0.8"></line>
    <line x1="57.91" y1="39.69" x2="64.91" y2="30.56" stroke="#c2853a" stroke-width="0.55" stroke-linecap="round" opacity="0.8"></line>
    <line x1="59.19" y1="40.81" x2="67.32" y2="32.68" stroke="#c2853a" stroke-width="0.55" stroke-linecap="round" opacity="0.8"></line>
    <line x1="60.31" y1="42.09" x2="69.44" y2="35.09" stroke="#c2853a" stroke-width="0.55" stroke-linecap="round" opacity="0.8"></line>
    <line x1="61.26" y1="43.50" x2="71.22" y2="37.75" stroke="#c2853a" stroke-width="0.55" stroke-linecap="round" opacity="0.8"></line>
    <line x1="62.01" y1="45.03" x2="72.64" y2="40.62" stroke="#c2853a" stroke-width="0.55" stroke-linecap="round" opacity="0.8"></line>
    <line x1="62.56" y1="46.64" x2="73.67" y2="43.66" stroke="#c2853a" stroke-width="0.55" stroke-linecap="round" opacity="0.8"></line>
    <line x1="62.89" y1="48.30" x2="74.29" y2="46.80" stroke="#c2853a" stroke-width="0.55" stroke-linecap="round" opacity="0.8"></line>
    <circle cx="50" cy="50" r="11" fill="#0d0d0d" stroke="#b45309" stroke-width="1.4"></circle>
    <circle cx="46.70" cy="46.70" r="3.52" fill="#fbbf24"></circle>
    <circle cx="53.08" cy="49.45" r="1.54" fill="#fbbf24"></circle>
  </g>
</svg>